# MagicaVoxel @ Ephtracy

# group
g maceta

# material
mtllib maceta.mtl
usemtl palette

# normals
vn -1 0 0
vn 1 0 0
vn 0 0 1
vn 0 0 -1
vn 0 -1 0
vn 0 1 0

# texcoords
vt 0.537109 0.5
vt 0.701172 0.5
vt 0.908203 0.5

# verts
v -10 0 10
v -10 0 -10
v -10 13 10
v -10 13 -10
v -1 11 1
v -1 11 -1
v -1 17 1
v -1 17 -0
v -1 19 3
v -1 19 -0
v -1 20 2
v -1 20 -0
v -1 21 3
v -1 21 2
v -1 22 3
v -1 22 -0
v -1 23 3
v -1 23 -0
v -1 26 5
v -1 26 -0
v -1 27 4
v -1 27 -0
v -1 29 5
v -1 29 4
v -1 30 -0
v -1 30 -1
v 0 11 2
v 0 11 1
v 0 17 1
v 0 17 -0
v 0 19 2
v 0 19 -0
v 0 20 1
v 0 20 -0
v 0 22 1
v 0 22 -0
v 0 23 1
v 0 23 -0
v 0 26 1
v 0 26 -0
v 0 27 1
v 0 27 -0
v 0 28 -1
v 0 28 -3
v 0 29 -1
v 0 29 -2
v 0 29 -3
v 0 29 -4
v 0 30 -0
v 0 30 -2
v 0 30 -3
v 0 30 -4
v 0 30 -5
v 0 31 -3
v 0 31 -4
v 0 31 -5
v 0 31 -6
v 0 32 -4
v 0 32 -5
v 0 34 -5
v 0 34 -6
v 0 36 1
v 0 36 -0
v 3 29 -0
v 3 29 -1
v 3 31 -0
v 3 31 -1
v 8 11 8
v 8 11 -8
v 8 13 8
v 8 13 -8
v -8 11 8
v -8 11 -8
v -8 13 8
v -8 13 -8
v 0 19 3
v 0 19 2
v 0 20 2
v 0 21 3
v 0 21 2
v 0 22 3
v 0 22 1
v 0 23 3
v 0 23 1
v 0 26 5
v 0 26 1
v 0 27 4
v 0 27 1
v 0 29 5
v 0 29 4
v 0 29 -0
v 0 29 -1
v 0 30 -0
v 0 30 -1
v 1 20 1
v 1 20 -1
v 1 28 -0
v 1 28 -1
v 1 28 -3
v 1 29 -0
v 1 29 -1
v 1 29 -2
v 1 29 -3
v 1 29 -4
v 1 30 -2
v 1 30 -3
v 1 30 -4
v 1 30 -5
v 1 31 -3
v 1 31 -4
v 1 31 -5
v 1 31 -6
v 1 32 -4
v 1 32 -5
v 1 34 -5
v 1 34 -6
v 1 36 1
v 1 36 -0
v 2 11 2
v 2 11 -1
v 2 20 2
v 2 20 -1
v 4 28 -0
v 4 28 -1
v 4 31 -0
v 4 31 -1
v 10 0 10
v 10 0 -10
v 10 13 10
v 10 13 -10
v -10 0 10
v -10 13 10
v 10 0 10
v 10 13 10
v -1 26 5
v -1 29 5
v 0 26 5
v 0 29 5
v -1 19 3
v -1 21 3
v -1 22 3
v -1 23 3
v 0 19 3
v 0 21 3
v 0 22 3
v 0 23 3
v 0 11 2
v 0 19 2
v 0 20 2
v 2 11 2
v 2 20 2
v -1 11 1
v -1 17 1
v 0 11 1
v 0 17 1
v 0 20 1
v 0 22 1
v 0 23 1
v 0 26 1
v 0 27 1
v 0 36 1
v 1 20 1
v 1 36 1
v -1 17 -0
v -1 19 -0
v -1 20 -0
v -1 22 -0
v -1 23 -0
v -1 26 -0
v -1 27 -0
v -1 30 -0
v 0 17 -0
v 0 19 -0
v 0 20 -0
v 0 22 -0
v 0 23 -0
v 0 26 -0
v 0 27 -0
v 0 30 -0
v 1 28 -0
v 1 29 -0
v 3 29 -0
v 3 31 -0
v 4 28 -0
v 4 31 -0
v 0 29 -2
v 0 30 -2
v 1 29 -2
v 1 30 -2
v 0 30 -3
v 0 31 -3
v 1 30 -3
v 1 31 -3
v 0 31 -4
v 0 32 -4
v 1 31 -4
v 1 32 -4
v 0 32 -5
v 0 34 -5
v 1 32 -5
v 1 34 -5
v -8 11 -8
v -8 13 -8
v 8 11 -8
v 8 13 -8
v -8 11 8
v -8 13 8
v 8 11 8
v 8 13 8
v -1 27 4
v -1 29 4
v 0 27 4
v 0 29 4
v -1 20 2
v -1 21 2
v 0 20 2
v 0 21 2
v 0 29 -0
v 0 30 -0
v 0 36 -0
v 1 29 -0
v 1 36 -0
v -1 11 -1
v -1 30 -1
v 0 28 -1
v 0 29 -1
v 0 30 -1
v 1 20 -1
v 1 28 -1
v 1 29 -1
v 2 11 -1
v 2 20 -1
v 3 29 -1
v 3 31 -1
v 4 28 -1
v 4 31 -1
v 0 28 -3
v 0 29 -3
v 1 28 -3
v 1 29 -3
v 0 29 -4
v 0 30 -4
v 1 29 -4
v 1 30 -4
v 0 30 -5
v 0 31 -5
v 1 30 -5
v 1 31 -5
v 0 31 -6
v 0 34 -6
v 1 31 -6
v 1 34 -6
v -10 0 -10
v -10 13 -10
v 10 0 -10
v 10 13 -10
v -10 0 10
v 10 0 10
v -10 0 -10
v 10 0 -10
v -1 19 3
v 0 19 3
v 0 19 2
v -1 19 -0
v 0 19 -0
v -1 22 3
v 0 22 3
v 0 22 1
v -1 22 -0
v 0 22 -0
v -1 26 5
v 0 26 5
v 0 26 1
v -1 26 -0
v 0 26 -0
v 1 28 -0
v 4 28 -0
v 0 28 -1
v 1 28 -1
v 4 28 -1
v 0 28 -3
v 1 28 -3
v 0 29 -3
v 1 29 -3
v 0 29 -4
v 1 29 -4
v 0 30 -4
v 1 30 -4
v 0 30 -5
v 1 30 -5
v 0 31 -5
v 1 31 -5
v 0 31 -6
v 1 31 -6
v -8 11 8
v 8 11 8
v 0 11 2
v 2 11 2
v -1 11 1
v 0 11 1
v -1 11 -1
v 2 11 -1
v -8 11 -8
v 8 11 -8
v -10 13 10
v 10 13 10
v -8 13 8
v 8 13 8
v -8 13 -8
v 8 13 -8
v -10 13 -10
v 10 13 -10
v -1 17 1
v 0 17 1
v -1 17 -0
v 0 17 -0
v -1 20 2
v 0 20 2
v 2 20 2
v 0 20 1
v 1 20 1
v -1 20 -0
v 0 20 -0
v 1 20 -1
v 2 20 -1
v -1 21 3
v 0 21 3
v -1 21 2
v 0 21 2
v -1 23 3
v 0 23 3
v 0 23 1
v -1 23 -0
v 0 23 -0
v -1 27 4
v 0 27 4
v 0 27 1
v -1 27 -0
v 0 27 -0
v -1 29 5
v 0 29 5
v -1 29 4
v 0 29 4
v 0 29 -0
v 1 29 -0
v 3 29 -0
v 0 29 -1
v 1 29 -1
v 3 29 -1
v 0 29 -2
v 1 29 -2
v -1 30 -0
v 0 30 -0
v -1 30 -1
v 0 30 -1
v 0 30 -2
v 1 30 -2
v 0 30 -3
v 1 30 -3
v 3 31 -0
v 4 31 -0
v 3 31 -1
v 4 31 -1
v 0 31 -3
v 1 31 -3
v 0 31 -4
v 1 31 -4
v 0 32 -4
v 1 32 -4
v 0 32 -5
v 1 32 -5
v 0 34 -5
v 1 34 -5
v 0 34 -6
v 1 34 -6
v 0 36 1
v 1 36 1
v 0 36 -0
v 1 36 -0

# faces
f 3/2/1 2/2/1 1/2/1
f 4/2/1 2/2/1 3/2/1
f 7/3/1 6/3/1 5/3/1
f 8/3/1 6/3/1 7/3/1
f 10/3/1 6/3/1 8/3/1
f 11/3/1 10/3/1 9/3/1
f 12/3/1 6/3/1 10/3/1
f 12/3/1 10/3/1 11/3/1
f 13/3/1 11/3/1 9/3/1
f 14/3/1 11/3/1 13/3/1
f 16/3/1 6/3/1 12/3/1
f 17/3/1 16/3/1 15/3/1
f 18/3/1 6/3/1 16/3/1
f 18/3/1 16/3/1 17/3/1
f 20/3/1 6/3/1 18/3/1
f 21/3/1 20/3/1 19/3/1
f 22/3/1 6/3/1 20/3/1
f 22/3/1 20/3/1 21/3/1
f 23/3/1 21/3/1 19/3/1
f 24/3/1 21/3/1 23/3/1
f 25/3/1 6/3/1 22/3/1
f 26/3/1 6/3/1 25/3/1
f 29/3/1 28/3/1 27/3/1
f 31/3/1 29/3/1 27/3/1
f 31/3/1 30/3/1 29/3/1
f 32/3/1 30/3/1 31/3/1
f 35/3/1 34/3/1 33/3/1
f 36/3/1 34/3/1 35/3/1
f 39/3/1 38/3/1 37/3/1
f 40/3/1 38/3/1 39/3/1
f 45/3/1 44/3/1 43/3/1
f 46/3/1 44/3/1 45/3/1
f 47/3/1 44/3/1 46/3/1
f 49/3/1 42/3/1 41/3/1
f 50/3/1 48/3/1 47/3/1
f 50/3/1 47/3/1 46/3/1
f 51/3/1 48/3/1 50/3/1
f 52/3/1 48/3/1 51/3/1
f 54/3/1 53/3/1 52/3/1
f 54/3/1 52/3/1 51/3/1
f 55/3/1 53/3/1 54/3/1
f 56/3/1 53/3/1 55/3/1
f 58/3/1 57/3/1 56/3/1
f 58/3/1 56/3/1 55/3/1
f 59/3/1 57/3/1 58/3/1
f 60/3/1 57/3/1 59/3/1
f 61/3/1 57/3/1 60/3/1
f 62/3/1 49/3/1 41/3/1
f 63/3/1 49/3/1 62/3/1
f 66/3/1 65/3/1 64/3/1
f 67/3/1 65/3/1 66/3/1
f 70/2/1 69/2/1 68/2/1
f 71/2/1 69/2/1 70/2/1
f 72/2/2 73/2/2 74/2/2
f 74/2/2 73/2/2 75/2/2
f 76/3/2 77/3/2 78/3/2
f 76/3/2 78/3/2 79/3/2
f 79/3/2 78/3/2 80/3/2
f 81/3/2 82/3/2 83/3/2
f 83/3/2 82/3/2 84/3/2
f 85/3/2 86/3/2 87/3/2
f 87/3/2 86/3/2 88/3/2
f 85/3/2 87/3/2 89/3/2
f 89/3/2 87/3/2 90/3/2
f 91/3/2 92/3/2 93/3/2
f 93/3/2 92/3/2 94/3/2
f 95/3/2 96/3/2 97/3/2
f 97/3/2 96/3/2 98/3/2
f 95/3/2 97/3/2 100/3/2
f 98/3/2 99/3/2 101/3/2
f 101/3/2 99/3/2 102/3/2
f 102/3/2 99/3/2 103/3/2
f 103/3/2 104/3/2 105/3/2
f 102/3/2 103/3/2 105/3/2
f 105/3/2 104/3/2 106/3/2
f 106/3/2 104/3/2 107/3/2
f 107/3/2 108/3/2 109/3/2
f 106/3/2 107/3/2 109/3/2
f 109/3/2 108/3/2 110/3/2
f 110/3/2 108/3/2 111/3/2
f 111/3/2 112/3/2 113/3/2
f 110/3/2 111/3/2 113/3/2
f 113/3/2 112/3/2 114/3/2
f 114/3/2 112/3/2 115/3/2
f 115/3/2 112/3/2 116/3/2
f 95/3/2 100/3/2 117/3/2
f 117/3/2 100/3/2 118/3/2
f 119/3/2 120/3/2 121/3/2
f 121/3/2 120/3/2 122/3/2
f 123/3/2 124/3/2 125/3/2
f 125/3/2 124/3/2 126/3/2
f 127/2/2 128/2/2 129/2/2
f 129/2/2 128/2/2 130/2/2
f 133/2/3 132/2/3 131/2/3
f 134/2/3 132/2/3 133/2/3
f 137/3/3 136/3/3 135/3/3
f 138/3/3 136/3/3 137/3/3
f 143/3/3 140/3/3 139/3/3
f 144/3/3 140/3/3 143/3/3
f 145/3/3 142/3/3 141/3/3
f 146/3/3 142/3/3 145/3/3
f 150/3/3 148/3/3 147/3/3
f 150/3/3 149/3/3 148/3/3
f 151/3/3 149/3/3 150/3/3
f 154/3/3 153/3/3 152/3/3
f 155/3/3 153/3/3 154/3/3
f 162/3/3 161/3/3 160/3/3
f 162/3/3 160/3/3 159/3/3
f 162/3/3 159/3/3 158/3/3
f 162/3/3 158/3/3 157/3/3
f 162/3/3 157/3/3 156/3/3
f 163/3/3 161/3/3 162/3/3
f 172/3/3 165/3/3 164/3/3
f 173/3/3 165/3/3 172/3/3
f 174/3/3 167/3/3 166/3/3
f 175/3/3 167/3/3 174/3/3
f 176/3/3 169/3/3 168/3/3
f 177/3/3 169/3/3 176/3/3
f 178/3/3 171/3/3 170/3/3
f 179/3/3 171/3/3 178/3/3
f 182/3/3 181/3/3 180/3/3
f 184/3/3 182/3/3 180/3/3
f 184/3/3 183/3/3 182/3/3
f 185/3/3 183/3/3 184/3/3
f 188/3/3 187/3/3 186/3/3
f 189/3/3 187/3/3 188/3/3
f 192/3/3 191/3/3 190/3/3
f 193/3/3 191/3/3 192/3/3
f 196/3/3 195/3/3 194/3/3
f 197/3/3 195/3/3 196/3/3
f 200/3/3 199/3/3 198/3/3
f 201/3/3 199/3/3 200/3/3
f 204/2/3 203/2/3 202/2/3
f 205/2/3 203/2/3 204/2/3
f 206/2/4 207/2/4 208/2/4
f 208/2/4 207/2/4 209/2/4
f 210/3/4 211/3/4 212/3/4
f 212/3/4 211/3/4 213/3/4
f 214/3/4 215/3/4 216/3/4
f 216/3/4 215/3/4 217/3/4
f 218/3/4 219/3/4 221/3/4
f 219/3/4 220/3/4 221/3/4
f 221/3/4 220/3/4 222/3/4
f 223/3/4 224/3/4 225/3/4
f 225/3/4 224/3/4 226/3/4
f 226/3/4 224/3/4 227/3/4
f 223/3/4 225/3/4 228/3/4
f 228/3/4 225/3/4 229/3/4
f 223/3/4 228/3/4 231/3/4
f 231/3/4 228/3/4 232/3/4
f 229/3/4 230/3/4 233/3/4
f 229/3/4 233/3/4 235/3/4
f 233/3/4 234/3/4 235/3/4
f 235/3/4 234/3/4 236/3/4
f 237/3/4 238/3/4 239/3/4
f 239/3/4 238/3/4 240/3/4
f 241/3/4 242/3/4 243/3/4
f 243/3/4 242/3/4 244/3/4
f 245/3/4 246/3/4 247/3/4
f 247/3/4 246/3/4 248/3/4
f 249/3/4 250/3/4 251/3/4
f 251/3/4 250/3/4 252/3/4
f 253/2/4 254/2/4 255/2/4
f 255/2/4 254/2/4 256/2/4
f 259/2/5 258/2/5 257/2/5
f 260/2/5 258/2/5 259/2/5
f 263/3/5 262/3/5 261/3/5
f 264/3/5 263/3/5 261/3/5
f 265/3/5 263/3/5 264/3/5
f 268/3/5 267/3/5 266/3/5
f 269/3/5 268/3/5 266/3/5
f 270/3/5 268/3/5 269/3/5
f 273/3/5 272/3/5 271/3/5
f 274/3/5 273/3/5 271/3/5
f 275/3/5 273/3/5 274/3/5
f 279/3/5 277/3/5 276/3/5
f 280/3/5 277/3/5 279/3/5
f 281/3/5 279/3/5 278/3/5
f 282/3/5 279/3/5 281/3/5
f 285/3/5 284/3/5 283/3/5
f 286/3/5 284/3/5 285/3/5
f 289/3/5 288/3/5 287/3/5
f 290/3/5 288/3/5 289/3/5
f 293/3/5 292/3/5 291/3/5
f 294/3/5 292/3/5 293/3/5
f 295/1/6 296/1/6 297/1/6
f 297/1/6 296/1/6 298/1/6
f 295/1/6 297/1/6 299/1/6
f 299/1/6 297/1/6 300/1/6
f 295/1/6 299/1/6 301/1/6
f 298/1/6 296/1/6 302/1/6
f 295/1/6 301/1/6 303/1/6
f 301/1/6 302/1/6 303/1/6
f 302/1/6 296/1/6 304/1/6
f 303/1/6 302/1/6 304/1/6
f 305/2/6 306/2/6 307/2/6
f 307/2/6 306/2/6 308/2/6
f 305/2/6 307/2/6 309/2/6
f 308/2/6 306/2/6 310/2/6
f 305/2/6 309/2/6 311/2/6
f 309/2/6 310/2/6 311/2/6
f 310/2/6 306/2/6 312/2/6
f 311/2/6 310/2/6 312/2/6
f 313/3/6 314/3/6 315/3/6
f 315/3/6 314/3/6 316/3/6
f 317/3/6 318/3/6 320/3/6
f 318/3/6 319/3/6 320/3/6
f 320/3/6 319/3/6 321/3/6
f 317/3/6 320/3/6 322/3/6
f 322/3/6 320/3/6 323/3/6
f 321/3/6 319/3/6 324/3/6
f 324/3/6 319/3/6 325/3/6
f 326/3/6 327/3/6 328/3/6
f 328/3/6 327/3/6 329/3/6
f 330/3/6 331/3/6 332/3/6
f 330/3/6 332/3/6 333/3/6
f 333/3/6 332/3/6 334/3/6
f 335/3/6 336/3/6 337/3/6
f 335/3/6 337/3/6 338/3/6
f 338/3/6 337/3/6 339/3/6
f 340/3/6 341/3/6 342/3/6
f 342/3/6 341/3/6 343/3/6
f 344/3/6 345/3/6 347/3/6
f 345/3/6 346/3/6 347/3/6
f 347/3/6 346/3/6 348/3/6
f 348/3/6 346/3/6 349/3/6
f 347/3/6 348/3/6 350/3/6
f 350/3/6 348/3/6 351/3/6
f 352/3/6 353/3/6 354/3/6
f 354/3/6 353/3/6 355/3/6
f 356/3/6 357/3/6 358/3/6
f 358/3/6 357/3/6 359/3/6
f 360/3/6 361/3/6 362/3/6
f 362/3/6 361/3/6 363/3/6
f 364/3/6 365/3/6 366/3/6
f 366/3/6 365/3/6 367/3/6
f 368/3/6 369/3/6 370/3/6
f 370/3/6 369/3/6 371/3/6
f 372/3/6 373/3/6 374/3/6
f 374/3/6 373/3/6 375/3/6
f 376/3/6 377/3/6 378/3/6
f 378/3/6 377/3/6 379/3/6
