# MagicaVoxel @ Ephtracy

# group
g puente

# material
mtllib puente.mtl
usemtl palette

# normals
vn -1 0 0
vn 1 0 0
vn 0 0 1
vn 0 0 -1
vn 0 -1 0
vn 0 1 0

# texcoords
vt 0.263672 0.5
vt 0.435547 0.5
vt 0.458984 0.5
vt 0.611328 0.5

# verts
v -10 0 50
v -10 0 41
v -10 0 40
v -10 0 31
v -10 0 30
v -10 0 21
v -10 0 20
v -10 0 11
v -10 0 10
v -10 0 1
v -10 0 -0
v -10 0 -9
v -10 0 -10
v -10 0 -19
v -10 0 -20
v -10 0 -29
v -10 0 -30
v -10 0 -39
v -10 0 -40
v -10 0 -50
v -10 1 50
v -10 1 41
v -10 1 40
v -10 1 31
v -10 1 30
v -10 1 21
v -10 1 20
v -10 1 11
v -10 1 10
v -10 1 1
v -10 1 -0
v -10 1 -9
v -10 1 -10
v -10 1 -19
v -10 1 -20
v -10 1 -29
v -10 1 -30
v -10 1 -39
v -10 1 -40
v -10 1 -50
v -10 3 50
v -10 3 41
v -10 3 40
v -10 3 31
v -10 3 30
v -10 3 21
v -10 3 20
v -10 3 11
v -10 3 10
v -10 3 1
v -10 3 -0
v -10 3 -9
v -10 3 -10
v -10 3 -19
v -10 3 -20
v -10 3 -29
v -10 3 -30
v -10 3 -39
v -10 3 -40
v -10 3 -50
v -9 3 49
v -9 3 41
v -9 3 39
v -9 3 31
v -9 3 30
v -9 3 22
v -9 3 19
v -9 3 11
v -9 3 10
v -9 3 2
v -9 3 -0
v -9 3 -8
v -9 3 -10
v -9 3 -18
v -9 3 -20
v -9 3 -28
v -9 3 -30
v -9 3 -38
v -9 3 -41
v -9 3 -49
v -9 4 49
v -9 4 41
v -9 4 39
v -9 4 31
v -9 4 30
v -9 4 22
v -9 4 19
v -9 4 11
v -9 4 10
v -9 4 2
v -9 4 -0
v -9 4 -8
v -9 4 -10
v -9 4 -18
v -9 4 -20
v -9 4 -28
v -9 4 -30
v -9 4 -38
v -9 4 -41
v -9 4 -49
v 26 3 40
v 26 3 32
v 26 3 29
v 26 3 21
v 26 3 20
v 26 3 12
v 26 3 10
v 26 3 2
v 26 3 -0
v 26 3 -8
v 26 3 -10
v 26 3 -18
v 26 3 -20
v 26 3 -28
v 26 3 -31
v 26 3 -39
v 26 3 -41
v 26 3 -49
v 26 4 40
v 26 4 32
v 26 4 29
v 26 4 21
v 26 4 20
v 26 4 12
v 26 4 10
v 26 4 2
v 26 4 -0
v 26 4 -8
v 26 4 -10
v 26 4 -18
v 26 4 -20
v 26 4 -28
v 26 4 -31
v 26 4 -39
v 26 4 -41
v 26 4 -49
v 27 3 50
v 27 3 42
v 27 4 50
v 27 4 42
v -6 3 49
v -6 3 41
v -6 3 39
v -6 3 31
v -6 3 30
v -6 3 22
v -6 3 19
v -6 3 11
v -6 3 10
v -6 3 2
v -6 3 -0
v -6 3 -8
v -6 3 -10
v -6 3 -18
v -6 3 -20
v -6 3 -28
v -6 3 -30
v -6 3 -38
v -6 3 -41
v -6 3 -49
v -6 4 49
v -6 4 41
v -6 4 39
v -6 4 31
v -6 4 30
v -6 4 22
v -6 4 19
v -6 4 11
v -6 4 10
v -6 4 2
v -6 4 -0
v -6 4 -8
v -6 4 -10
v -6 4 -18
v -6 4 -20
v -6 4 -28
v -6 4 -30
v -6 4 -38
v -6 4 -41
v -6 4 -49
v 29 3 40
v 29 3 32
v 29 3 29
v 29 3 21
v 29 3 20
v 29 3 12
v 29 3 10
v 29 3 2
v 29 3 -0
v 29 3 -8
v 29 3 -10
v 29 3 -18
v 29 3 -20
v 29 3 -28
v 29 3 -31
v 29 3 -39
v 29 3 -41
v 29 3 -49
v 29 4 40
v 29 4 32
v 29 4 29
v 29 4 21
v 29 4 20
v 29 4 12
v 29 4 10
v 29 4 2
v 29 4 -0
v 29 4 -8
v 29 4 -10
v 29 4 -18
v 29 4 -20
v 29 4 -28
v 29 4 -31
v 29 4 -39
v 29 4 -41
v 29 4 -49
v 30 0 50
v 30 0 41
v 30 0 40
v 30 0 31
v 30 0 30
v 30 0 21
v 30 0 20
v 30 0 11
v 30 0 10
v 30 0 1
v 30 0 -0
v 30 0 -9
v 30 0 -10
v 30 0 -19
v 30 0 -20
v 30 0 -29
v 30 0 -30
v 30 0 -39
v 30 0 -40
v 30 0 -50
v 30 1 50
v 30 1 41
v 30 1 40
v 30 1 31
v 30 1 30
v 30 1 21
v 30 1 20
v 30 1 11
v 30 1 10
v 30 1 1
v 30 1 -0
v 30 1 -9
v 30 1 -10
v 30 1 -19
v 30 1 -20
v 30 1 -29
v 30 1 -30
v 30 1 -39
v 30 1 -40
v 30 1 -50
v 30 3 50
v 30 3 42
v 30 3 41
v 30 3 40
v 30 3 31
v 30 3 30
v 30 3 21
v 30 3 20
v 30 3 11
v 30 3 10
v 30 3 1
v 30 3 -0
v 30 3 -9
v 30 3 -10
v 30 3 -19
v 30 3 -20
v 30 3 -29
v 30 3 -30
v 30 3 -39
v 30 3 -40
v 30 3 -50
v 30 4 50
v 30 4 42
v -10 0 50
v -10 1 50
v -10 3 50
v 27 3 50
v 27 4 50
v 30 0 50
v 30 1 50
v 30 3 50
v 30 4 50
v -9 3 49
v -9 4 49
v -6 3 49
v -6 4 49
v -10 1 40
v -10 3 40
v 26 3 40
v 26 4 40
v 29 3 40
v 29 4 40
v 30 1 40
v 30 3 40
v -9 3 39
v -9 4 39
v -6 3 39
v -6 4 39
v -10 1 30
v -10 3 30
v -9 3 30
v -9 4 30
v -6 3 30
v -6 4 30
v 30 1 30
v 30 3 30
v 26 3 29
v 26 4 29
v 29 3 29
v 29 4 29
v -10 1 20
v -10 3 20
v 26 3 20
v 26 4 20
v 29 3 20
v 29 4 20
v 30 1 20
v 30 3 20
v -9 3 19
v -9 4 19
v -6 3 19
v -6 4 19
v -10 1 10
v -10 3 10
v -9 3 10
v -9 4 10
v -6 3 10
v -6 4 10
v 26 3 10
v 26 4 10
v 29 3 10
v 29 4 10
v 30 1 10
v 30 3 10
v -10 1 -0
v -10 3 -0
v -9 3 -0
v -9 4 -0
v -6 3 -0
v -6 4 -0
v 26 3 -0
v 26 4 -0
v 29 3 -0
v 29 4 -0
v 30 1 -0
v 30 3 -0
v -10 1 -10
v -10 3 -10
v -9 3 -10
v -9 4 -10
v -6 3 -10
v -6 4 -10
v 26 3 -10
v 26 4 -10
v 29 3 -10
v 29 4 -10
v 30 1 -10
v 30 3 -10
v -10 1 -20
v -10 3 -20
v -9 3 -20
v -9 4 -20
v -6 3 -20
v -6 4 -20
v 26 3 -20
v 26 4 -20
v 29 3 -20
v 29 4 -20
v 30 1 -20
v 30 3 -20
v -10 1 -30
v -10 3 -30
v -9 3 -30
v -9 4 -30
v -6 3 -30
v -6 4 -30
v 30 1 -30
v 30 3 -30
v 26 3 -31
v 26 4 -31
v 29 3 -31
v 29 4 -31
v -10 1 -40
v -10 3 -40
v 30 1 -40
v 30 3 -40
v -9 3 -41
v -9 4 -41
v -6 3 -41
v -6 4 -41
v 26 3 -41
v 26 4 -41
v 29 3 -41
v 29 4 -41
v 27 3 42
v 27 4 42
v 30 3 42
v 30 4 42
v -10 1 41
v -10 3 41
v -9 3 41
v -9 4 41
v -6 3 41
v -6 4 41
v 30 1 41
v 30 3 41
v 26 3 32
v 26 4 32
v 29 3 32
v 29 4 32
v -10 1 31
v -10 3 31
v -9 3 31
v -9 4 31
v -6 3 31
v -6 4 31
v 30 1 31
v 30 3 31
v -9 3 22
v -9 4 22
v -6 3 22
v -6 4 22
v -10 1 21
v -10 3 21
v 26 3 21
v 26 4 21
v 29 3 21
v 29 4 21
v 30 1 21
v 30 3 21
v 26 3 12
v 26 4 12
v 29 3 12
v 29 4 12
v -10 1 11
v -10 3 11
v -9 3 11
v -9 4 11
v -6 3 11
v -6 4 11
v 30 1 11
v 30 3 11
v -9 3 2
v -9 4 2
v -6 3 2
v -6 4 2
v 26 3 2
v 26 4 2
v 29 3 2
v 29 4 2
v -10 1 1
v -10 3 1
v 30 1 1
v 30 3 1
v -9 3 -8
v -9 4 -8
v -6 3 -8
v -6 4 -8
v 26 3 -8
v 26 4 -8
v 29 3 -8
v 29 4 -8
v -10 1 -9
v -10 3 -9
v 30 1 -9
v 30 3 -9
v -9 3 -18
v -9 4 -18
v -6 3 -18
v -6 4 -18
v 26 3 -18
v 26 4 -18
v 29 3 -18
v 29 4 -18
v -10 1 -19
v -10 3 -19
v 30 1 -19
v 30 3 -19
v -9 3 -28
v -9 4 -28
v -6 3 -28
v -6 4 -28
v 26 3 -28
v 26 4 -28
v 29 3 -28
v 29 4 -28
v -10 1 -29
v -10 3 -29
v 30 1 -29
v 30 3 -29
v -9 3 -38
v -9 4 -38
v -6 3 -38
v -6 4 -38
v -10 1 -39
v -10 3 -39
v 26 3 -39
v 26 4 -39
v 29 3 -39
v 29 4 -39
v 30 1 -39
v 30 3 -39
v -9 3 -49
v -9 4 -49
v -6 3 -49
v -6 4 -49
v 26 3 -49
v 26 4 -49
v 29 3 -49
v 29 4 -49
v -10 0 -50
v -10 1 -50
v -10 3 -50
v 30 0 -50
v 30 1 -50
v 30 3 -50
v -10 0 50
v 30 0 50
v -10 0 41
v 30 0 41
v -10 0 40
v 30 0 40
v -10 0 31
v 30 0 31
v -10 0 30
v 30 0 30
v -10 0 21
v 30 0 21
v -10 0 20
v 30 0 20
v -10 0 11
v 30 0 11
v -10 0 10
v 30 0 10
v -10 0 1
v 30 0 1
v -10 0 -0
v 30 0 -0
v -10 0 -9
v 30 0 -9
v -10 0 -10
v 30 0 -10
v -10 0 -19
v 30 0 -19
v -10 0 -20
v 30 0 -20
v -10 0 -29
v 30 0 -29
v -10 0 -30
v 30 0 -30
v -10 0 -39
v 30 0 -39
v -10 0 -40
v 30 0 -40
v -10 0 -50
v 30 0 -50
v -10 1 41
v 30 1 41
v -10 1 40
v 30 1 40
v -10 1 31
v 30 1 31
v -10 1 30
v 30 1 30
v -10 1 21
v 30 1 21
v -10 1 20
v 30 1 20
v -10 1 11
v 30 1 11
v -10 1 10
v 30 1 10
v -10 1 1
v 30 1 1
v -10 1 -0
v 30 1 -0
v -10 1 -9
v 30 1 -9
v -10 1 -10
v 30 1 -10
v -10 1 -19
v 30 1 -19
v -10 1 -20
v 30 1 -20
v -10 1 -29
v 30 1 -29
v -10 1 -30
v 30 1 -30
v -10 1 -39
v 30 1 -39
v -10 1 -40
v 30 1 -40
v -10 3 50
v 27 3 50
v -9 3 49
v -6 3 49
v 27 3 42
v 30 3 42
v -10 3 41
v -9 3 41
v -6 3 41
v 30 3 41
v -10 3 40
v 26 3 40
v 29 3 40
v 30 3 40
v -9 3 39
v -6 3 39
v 26 3 32
v 29 3 32
v -10 3 31
v -9 3 31
v -6 3 31
v 30 3 31
v -10 3 30
v -9 3 30
v -6 3 30
v 30 3 30
v 26 3 29
v 29 3 29
v -9 3 22
v -6 3 22
v -10 3 21
v 26 3 21
v 29 3 21
v 30 3 21
v -10 3 20
v 26 3 20
v 29 3 20
v 30 3 20
v -9 3 19
v -6 3 19
v 26 3 12
v 29 3 12
v -10 3 11
v -9 3 11
v -6 3 11
v 30 3 11
v -10 3 10
v -9 3 10
v -6 3 10
v 26 3 10
v 29 3 10
v 30 3 10
v -9 3 2
v -6 3 2
v 26 3 2
v 29 3 2
v -10 3 1
v 30 3 1
v -10 3 -0
v -9 3 -0
v -6 3 -0
v 26 3 -0
v 29 3 -0
v 30 3 -0
v -9 3 -8
v -6 3 -8
v 26 3 -8
v 29 3 -8
v -10 3 -9
v 30 3 -9
v -10 3 -10
v -9 3 -10
v -6 3 -10
v 26 3 -10
v 29 3 -10
v 30 3 -10
v -9 3 -18
v -6 3 -18
v 26 3 -18
v 29 3 -18
v -10 3 -19
v 30 3 -19
v -10 3 -20
v -9 3 -20
v -6 3 -20
v 26 3 -20
v 29 3 -20
v 30 3 -20
v -9 3 -28
v -6 3 -28
v 26 3 -28
v 29 3 -28
v -10 3 -29
v 30 3 -29
v -10 3 -30
v -9 3 -30
v -6 3 -30
v 30 3 -30
v 26 3 -31
v 29 3 -31
v -9 3 -38
v -6 3 -38
v -10 3 -39
v 26 3 -39
v 29 3 -39
v 30 3 -39
v -10 3 -40
v 30 3 -40
v -9 3 -41
v -6 3 -41
v 26 3 -41
v 29 3 -41
v -9 3 -49
v -6 3 -49
v 26 3 -49
v 29 3 -49
v -10 3 -50
v 30 3 -50
v 27 4 50
v 30 4 50
v -9 4 49
v -6 4 49
v 27 4 42
v 30 4 42
v -9 4 41
v -6 4 41
v 26 4 40
v 29 4 40
v -9 4 39
v -6 4 39
v 26 4 32
v 29 4 32
v -9 4 31
v -6 4 31
v -9 4 30
v -6 4 30
v 26 4 29
v 29 4 29
v -9 4 22
v -6 4 22
v 26 4 21
v 29 4 21
v 26 4 20
v 29 4 20
v -9 4 19
v -6 4 19
v 26 4 12
v 29 4 12
v -9 4 11
v -6 4 11
v -9 4 10
v -6 4 10
v 26 4 10
v 29 4 10
v -9 4 2
v -6 4 2
v 26 4 2
v 29 4 2
v -9 4 -0
v -6 4 -0
v 26 4 -0
v 29 4 -0
v -9 4 -8
v -6 4 -8
v 26 4 -8
v 29 4 -8
v -9 4 -10
v -6 4 -10
v 26 4 -10
v 29 4 -10
v -9 4 -18
v -6 4 -18
v 26 4 -18
v 29 4 -18
v -9 4 -20
v -6 4 -20
v 26 4 -20
v 29 4 -20
v -9 4 -28
v -6 4 -28
v 26 4 -28
v 29 4 -28
v -9 4 -30
v -6 4 -30
v 26 4 -31
v 29 4 -31
v -9 4 -38
v -6 4 -38
v 26 4 -39
v 29 4 -39
v -9 4 -41
v -6 4 -41
v 26 4 -41
v 29 4 -41
v -9 4 -49
v -6 4 -49
v 26 4 -49
v 29 4 -49

# faces
f 21/1/1 2/1/1 1/1/1
f 22/4/1 3/4/1 2/4/1
f 22/1/1 2/1/1 21/1/1
f 23/1/1 4/1/1 3/1/1
f 23/4/1 3/4/1 22/4/1
f 24/4/1 5/4/1 4/4/1
f 24/1/1 4/1/1 23/1/1
f 25/1/1 6/1/1 5/1/1
f 25/4/1 5/4/1 24/4/1
f 26/4/1 7/4/1 6/4/1
f 26/1/1 6/1/1 25/1/1
f 27/1/1 8/1/1 7/1/1
f 27/4/1 7/4/1 26/4/1
f 28/4/1 9/4/1 8/4/1
f 28/1/1 8/1/1 27/1/1
f 29/1/1 10/1/1 9/1/1
f 29/4/1 9/4/1 28/4/1
f 30/4/1 11/4/1 10/4/1
f 30/1/1 10/1/1 29/1/1
f 31/1/1 12/1/1 11/1/1
f 31/4/1 11/4/1 30/4/1
f 32/4/1 13/4/1 12/4/1
f 32/1/1 12/1/1 31/1/1
f 33/1/1 14/1/1 13/1/1
f 33/4/1 13/4/1 32/4/1
f 34/4/1 15/4/1 14/4/1
f 34/1/1 14/1/1 33/1/1
f 35/1/1 16/1/1 15/1/1
f 35/4/1 15/4/1 34/4/1
f 36/4/1 17/4/1 16/4/1
f 36/1/1 16/1/1 35/1/1
f 37/1/1 18/1/1 17/1/1
f 37/4/1 17/4/1 36/4/1
f 38/4/1 19/4/1 18/4/1
f 38/1/1 18/1/1 37/1/1
f 39/1/1 20/1/1 19/1/1
f 39/4/1 19/4/1 38/4/1
f 40/1/1 20/1/1 39/1/1
f 41/3/1 22/3/1 21/3/1
f 42/3/1 22/3/1 41/3/1
f 43/3/1 24/3/1 23/3/1
f 44/3/1 24/3/1 43/3/1
f 45/3/1 26/3/1 25/3/1
f 46/3/1 26/3/1 45/3/1
f 47/3/1 28/3/1 27/3/1
f 48/3/1 28/3/1 47/3/1
f 49/3/1 30/3/1 29/3/1
f 50/3/1 30/3/1 49/3/1
f 51/3/1 32/3/1 31/3/1
f 52/3/1 32/3/1 51/3/1
f 53/3/1 34/3/1 33/3/1
f 54/3/1 34/3/1 53/3/1
f 55/3/1 36/3/1 35/3/1
f 56/3/1 36/3/1 55/3/1
f 57/3/1 38/3/1 37/3/1
f 58/3/1 38/3/1 57/3/1
f 59/3/1 40/3/1 39/3/1
f 60/3/1 40/3/1 59/3/1
f 81/2/1 62/2/1 61/2/1
f 82/2/1 62/2/1 81/2/1
f 83/2/1 64/2/1 63/2/1
f 84/2/1 64/2/1 83/2/1
f 85/2/1 66/2/1 65/2/1
f 86/2/1 66/2/1 85/2/1
f 87/2/1 68/2/1 67/2/1
f 88/2/1 68/2/1 87/2/1
f 89/2/1 70/2/1 69/2/1
f 90/2/1 70/2/1 89/2/1
f 91/2/1 72/2/1 71/2/1
f 92/2/1 72/2/1 91/2/1
f 93/2/1 74/2/1 73/2/1
f 94/2/1 74/2/1 93/2/1
f 95/2/1 76/2/1 75/2/1
f 96/2/1 76/2/1 95/2/1
f 97/2/1 78/2/1 77/2/1
f 98/2/1 78/2/1 97/2/1
f 99/2/1 80/2/1 79/2/1
f 100/2/1 80/2/1 99/2/1
f 119/2/1 102/2/1 101/2/1
f 120/2/1 102/2/1 119/2/1
f 121/2/1 104/2/1 103/2/1
f 122/2/1 104/2/1 121/2/1
f 123/2/1 106/2/1 105/2/1
f 124/2/1 106/2/1 123/2/1
f 125/2/1 108/2/1 107/2/1
f 126/2/1 108/2/1 125/2/1
f 127/2/1 110/2/1 109/2/1
f 128/2/1 110/2/1 127/2/1
f 129/2/1 112/2/1 111/2/1
f 130/2/1 112/2/1 129/2/1
f 131/2/1 114/2/1 113/2/1
f 132/2/1 114/2/1 131/2/1
f 133/2/1 116/2/1 115/2/1
f 134/2/1 116/2/1 133/2/1
f 135/2/1 118/2/1 117/2/1
f 136/2/1 118/2/1 135/2/1
f 139/2/1 138/2/1 137/2/1
f 140/2/1 138/2/1 139/2/1
f 141/2/2 142/2/2 161/2/2
f 161/2/2 142/2/2 162/2/2
f 143/2/2 144/2/2 163/2/2
f 163/2/2 144/2/2 164/2/2
f 145/2/2 146/2/2 165/2/2
f 165/2/2 146/2/2 166/2/2
f 147/2/2 148/2/2 167/2/2
f 167/2/2 148/2/2 168/2/2
f 149/2/2 150/2/2 169/2/2
f 169/2/2 150/2/2 170/2/2
f 151/2/2 152/2/2 171/2/2
f 171/2/2 152/2/2 172/2/2
f 153/2/2 154/2/2 173/2/2
f 173/2/2 154/2/2 174/2/2
f 155/2/2 156/2/2 175/2/2
f 175/2/2 156/2/2 176/2/2
f 157/2/2 158/2/2 177/2/2
f 177/2/2 158/2/2 178/2/2
f 159/2/2 160/2/2 179/2/2
f 179/2/2 160/2/2 180/2/2
f 181/2/2 182/2/2 199/2/2
f 199/2/2 182/2/2 200/2/2
f 183/2/2 184/2/2 201/2/2
f 201/2/2 184/2/2 202/2/2
f 185/2/2 186/2/2 203/2/2
f 203/2/2 186/2/2 204/2/2
f 187/2/2 188/2/2 205/2/2
f 205/2/2 188/2/2 206/2/2
f 189/2/2 190/2/2 207/2/2
f 207/2/2 190/2/2 208/2/2
f 191/2/2 192/2/2 209/2/2
f 209/2/2 192/2/2 210/2/2
f 193/2/2 194/2/2 211/2/2
f 211/2/2 194/2/2 212/2/2
f 195/2/2 196/2/2 213/2/2
f 213/2/2 196/2/2 214/2/2
f 197/2/2 198/2/2 215/2/2
f 215/2/2 198/2/2 216/2/2
f 217/1/2 218/1/2 237/1/2
f 218/4/2 219/4/2 238/4/2
f 237/1/2 218/1/2 238/1/2
f 219/1/2 220/1/2 239/1/2
f 238/4/2 219/4/2 239/4/2
f 220/4/2 221/4/2 240/4/2
f 239/1/2 220/1/2 240/1/2
f 221/1/2 222/1/2 241/1/2
f 240/4/2 221/4/2 241/4/2
f 222/4/2 223/4/2 242/4/2
f 241/1/2 222/1/2 242/1/2
f 223/1/2 224/1/2 243/1/2
f 242/4/2 223/4/2 243/4/2
f 224/4/2 225/4/2 244/4/2
f 243/1/2 224/1/2 244/1/2
f 225/1/2 226/1/2 245/1/2
f 244/4/2 225/4/2 245/4/2
f 226/4/2 227/4/2 246/4/2
f 245/1/2 226/1/2 246/1/2
f 227/1/2 228/1/2 247/1/2
f 246/4/2 227/4/2 247/4/2
f 228/4/2 229/4/2 248/4/2
f 247/1/2 228/1/2 248/1/2
f 229/1/2 230/1/2 249/1/2
f 248/4/2 229/4/2 249/4/2
f 230/4/2 231/4/2 250/4/2
f 249/1/2 230/1/2 250/1/2
f 231/1/2 232/1/2 251/1/2
f 250/4/2 231/4/2 251/4/2
f 232/4/2 233/4/2 252/4/2
f 251/1/2 232/1/2 252/1/2
f 233/1/2 234/1/2 253/1/2
f 252/4/2 233/4/2 253/4/2
f 234/4/2 235/4/2 254/4/2
f 253/1/2 234/1/2 254/1/2
f 235/1/2 236/1/2 255/1/2
f 254/4/2 235/4/2 255/4/2
f 255/1/2 236/1/2 256/1/2
f 237/3/2 238/3/2 257/3/2
f 257/3/2 238/3/2 258/3/2
f 258/3/2 238/3/2 259/3/2
f 239/3/2 240/3/2 260/3/2
f 260/3/2 240/3/2 261/3/2
f 241/3/2 242/3/2 262/3/2
f 262/3/2 242/3/2 263/3/2
f 243/3/2 244/3/2 264/3/2
f 264/3/2 244/3/2 265/3/2
f 245/3/2 246/3/2 266/3/2
f 266/3/2 246/3/2 267/3/2
f 247/3/2 248/3/2 268/3/2
f 268/3/2 248/3/2 269/3/2
f 249/3/2 250/3/2 270/3/2
f 270/3/2 250/3/2 271/3/2
f 251/3/2 252/3/2 272/3/2
f 272/3/2 252/3/2 273/3/2
f 253/3/2 254/3/2 274/3/2
f 274/3/2 254/3/2 275/3/2
f 255/3/2 256/3/2 276/3/2
f 276/3/2 256/3/2 277/3/2
f 257/2/2 258/2/2 278/2/2
f 278/2/2 258/2/2 279/2/2
f 283/3/3 282/3/3 281/3/3
f 285/1/3 281/1/3 280/1/3
f 286/3/3 283/3/3 281/3/3
f 286/1/3 281/1/3 285/1/3
f 287/2/3 284/2/3 283/2/3
f 287/3/3 283/3/3 286/3/3
f 288/2/3 284/2/3 287/2/3
f 291/2/3 290/2/3 289/2/3
f 292/2/3 290/2/3 291/2/3
f 295/3/3 294/3/3 293/3/3
f 297/3/3 295/3/3 293/3/3
f 297/2/3 296/2/3 295/2/3
f 298/2/3 296/2/3 297/2/3
f 299/3/3 297/3/3 293/3/3
f 300/3/3 297/3/3 299/3/3
f 303/2/3 302/2/3 301/2/3
f 304/2/3 302/2/3 303/2/3
f 307/3/3 306/3/3 305/3/3
f 309/3/3 307/3/3 305/3/3
f 309/2/3 308/2/3 307/2/3
f 310/2/3 308/2/3 309/2/3
f 311/3/3 309/3/3 305/3/3
f 312/3/3 309/3/3 311/3/3
f 315/2/3 314/2/3 313/2/3
f 316/2/3 314/2/3 315/2/3
f 319/3/3 318/3/3 317/3/3
f 321/3/3 319/3/3 317/3/3
f 321/2/3 320/2/3 319/2/3
f 322/2/3 320/2/3 321/2/3
f 323/3/3 321/3/3 317/3/3
f 324/3/3 321/3/3 323/3/3
f 327/2/3 326/2/3 325/2/3
f 328/2/3 326/2/3 327/2/3
f 331/3/3 330/3/3 329/3/3
f 333/3/3 331/3/3 329/3/3
f 333/2/3 332/2/3 331/2/3
f 334/2/3 332/2/3 333/2/3
f 335/3/3 333/3/3 329/3/3
f 337/3/3 335/3/3 329/3/3
f 337/2/3 336/2/3 335/2/3
f 338/2/3 336/2/3 337/2/3
f 339/3/3 337/3/3 329/3/3
f 340/3/3 337/3/3 339/3/3
f 343/3/3 342/3/3 341/3/3
f 345/3/3 343/3/3 341/3/3
f 345/2/3 344/2/3 343/2/3
f 346/2/3 344/2/3 345/2/3
f 347/3/3 345/3/3 341/3/3
f 349/3/3 347/3/3 341/3/3
f 349/2/3 348/2/3 347/2/3
f 350/2/3 348/2/3 349/2/3
f 351/3/3 349/3/3 341/3/3
f 352/3/3 349/3/3 351/3/3
f 355/3/3 354/3/3 353/3/3
f 357/3/3 355/3/3 353/3/3
f 357/2/3 356/2/3 355/2/3
f 358/2/3 356/2/3 357/2/3
f 359/3/3 357/3/3 353/3/3
f 361/3/3 359/3/3 353/3/3
f 361/2/3 360/2/3 359/2/3
f 362/2/3 360/2/3 361/2/3
f 363/3/3 361/3/3 353/3/3
f 364/3/3 361/3/3 363/3/3
f 367/3/3 366/3/3 365/3/3
f 369/3/3 367/3/3 365/3/3
f 369/2/3 368/2/3 367/2/3
f 370/2/3 368/2/3 369/2/3
f 371/3/3 369/3/3 365/3/3
f 373/3/3 371/3/3 365/3/3
f 373/2/3 372/2/3 371/2/3
f 374/2/3 372/2/3 373/2/3
f 375/3/3 373/3/3 365/3/3
f 376/3/3 373/3/3 375/3/3
f 379/3/3 378/3/3 377/3/3
f 381/3/3 379/3/3 377/3/3
f 381/2/3 380/2/3 379/2/3
f 382/2/3 380/2/3 381/2/3
f 383/3/3 381/3/3 377/3/3
f 384/3/3 381/3/3 383/3/3
f 387/2/3 386/2/3 385/2/3
f 388/2/3 386/2/3 387/2/3
f 391/3/3 390/3/3 389/3/3
f 392/3/3 390/3/3 391/3/3
f 395/2/3 394/2/3 393/2/3
f 396/2/3 394/2/3 395/2/3
f 399/2/3 398/2/3 397/2/3
f 400/2/3 398/2/3 399/2/3
f 401/2/4 402/2/4 403/2/4
f 403/2/4 402/2/4 404/2/4
f 405/3/4 406/3/4 407/3/4
f 405/3/4 407/3/4 409/3/4
f 407/2/4 408/2/4 409/2/4
f 409/2/4 408/2/4 410/2/4
f 405/3/4 409/3/4 411/3/4
f 411/3/4 409/3/4 412/3/4
f 413/2/4 414/2/4 415/2/4
f 415/2/4 414/2/4 416/2/4
f 417/3/4 418/3/4 419/3/4
f 417/3/4 419/3/4 421/3/4
f 419/2/4 420/2/4 421/2/4
f 421/2/4 420/2/4 422/2/4
f 417/3/4 421/3/4 423/3/4
f 423/3/4 421/3/4 424/3/4
f 425/2/4 426/2/4 427/2/4
f 427/2/4 426/2/4 428/2/4
f 429/3/4 430/3/4 431/3/4
f 429/3/4 431/3/4 433/3/4
f 431/2/4 432/2/4 433/2/4
f 433/2/4 432/2/4 434/2/4
f 429/3/4 433/3/4 435/3/4
f 435/3/4 433/3/4 436/3/4
f 437/2/4 438/2/4 439/2/4
f 439/2/4 438/2/4 440/2/4
f 441/3/4 442/3/4 443/3/4
f 441/3/4 443/3/4 445/3/4
f 443/2/4 444/2/4 445/2/4
f 445/2/4 444/2/4 446/2/4
f 441/3/4 445/3/4 447/3/4
f 447/3/4 445/3/4 448/3/4
f 449/2/4 450/2/4 451/2/4
f 451/2/4 450/2/4 452/2/4
f 453/2/4 454/2/4 455/2/4
f 455/2/4 454/2/4 456/2/4
f 457/3/4 458/3/4 459/3/4
f 459/3/4 458/3/4 460/3/4
f 461/2/4 462/2/4 463/2/4
f 463/2/4 462/2/4 464/2/4
f 465/2/4 466/2/4 467/2/4
f 467/2/4 466/2/4 468/2/4
f 469/3/4 470/3/4 471/3/4
f 471/3/4 470/3/4 472/3/4
f 473/2/4 474/2/4 475/2/4
f 475/2/4 474/2/4 476/2/4
f 477/2/4 478/2/4 479/2/4
f 479/2/4 478/2/4 480/2/4
f 481/3/4 482/3/4 483/3/4
f 483/3/4 482/3/4 484/3/4
f 485/2/4 486/2/4 487/2/4
f 487/2/4 486/2/4 488/2/4
f 489/2/4 490/2/4 491/2/4
f 491/2/4 490/2/4 492/2/4
f 493/3/4 494/3/4 495/3/4
f 495/3/4 494/3/4 496/3/4
f 497/2/4 498/2/4 499/2/4
f 499/2/4 498/2/4 500/2/4
f 501/3/4 502/3/4 503/3/4
f 501/3/4 503/3/4 505/3/4
f 503/2/4 504/2/4 505/2/4
f 505/2/4 504/2/4 506/2/4
f 501/3/4 505/3/4 507/3/4
f 507/3/4 505/3/4 508/3/4
f 509/2/4 510/2/4 511/2/4
f 511/2/4 510/2/4 512/2/4
f 513/2/4 514/2/4 515/2/4
f 515/2/4 514/2/4 516/2/4
f 517/1/4 518/1/4 520/1/4
f 518/3/4 519/3/4 521/3/4
f 520/1/4 518/1/4 521/1/4
f 521/3/4 519/3/4 522/3/4
f 525/1/5 524/1/5 523/1/5
f 526/1/5 524/1/5 525/1/5
f 527/4/5 526/4/5 525/4/5
f 528/4/5 526/4/5 527/4/5
f 529/1/5 528/1/5 527/1/5
f 530/1/5 528/1/5 529/1/5
f 531/4/5 530/4/5 529/4/5
f 532/4/5 530/4/5 531/4/5
f 533/1/5 532/1/5 531/1/5
f 534/1/5 532/1/5 533/1/5
f 535/4/5 534/4/5 533/4/5
f 536/4/5 534/4/5 535/4/5
f 537/1/5 536/1/5 535/1/5
f 538/1/5 536/1/5 537/1/5
f 539/4/5 538/4/5 537/4/5
f 540/4/5 538/4/5 539/4/5
f 541/1/5 540/1/5 539/1/5
f 542/1/5 540/1/5 541/1/5
f 543/4/5 542/4/5 541/4/5
f 544/4/5 542/4/5 543/4/5
f 545/1/5 544/1/5 543/1/5
f 546/1/5 544/1/5 545/1/5
f 547/4/5 546/4/5 545/4/5
f 548/4/5 546/4/5 547/4/5
f 549/1/5 548/1/5 547/1/5
f 550/1/5 548/1/5 549/1/5
f 551/4/5 550/4/5 549/4/5
f 552/4/5 550/4/5 551/4/5
f 553/1/5 552/1/5 551/1/5
f 554/1/5 552/1/5 553/1/5
f 555/4/5 554/4/5 553/4/5
f 556/4/5 554/4/5 555/4/5
f 557/1/5 556/1/5 555/1/5
f 558/1/5 556/1/5 557/1/5
f 559/4/5 558/4/5 557/4/5
f 560/4/5 558/4/5 559/4/5
f 561/1/5 560/1/5 559/1/5
f 562/1/5 560/1/5 561/1/5
f 563/4/6 564/4/6 565/4/6
f 565/4/6 564/4/6 566/4/6
f 567/4/6 568/4/6 569/4/6
f 569/4/6 568/4/6 570/4/6
f 571/4/6 572/4/6 573/4/6
f 573/4/6 572/4/6 574/4/6
f 575/4/6 576/4/6 577/4/6
f 577/4/6 576/4/6 578/4/6
f 579/4/6 580/4/6 581/4/6
f 581/4/6 580/4/6 582/4/6
f 583/4/6 584/4/6 585/4/6
f 585/4/6 584/4/6 586/4/6
f 587/4/6 588/4/6 589/4/6
f 589/4/6 588/4/6 590/4/6
f 591/4/6 592/4/6 593/4/6
f 593/4/6 592/4/6 594/4/6
f 595/4/6 596/4/6 597/4/6
f 597/4/6 596/4/6 598/4/6
f 599/3/6 600/3/6 601/3/6
f 601/3/6 600/3/6 602/3/6
f 602/3/6 600/3/6 603/3/6
f 599/3/6 601/3/6 605/3/6
f 605/3/6 601/3/6 606/3/6
f 603/3/6 604/3/6 607/3/6
f 602/3/6 603/3/6 607/3/6
f 607/3/6 604/3/6 608/3/6
f 609/3/6 610/3/6 613/3/6
f 613/3/6 610/3/6 614/3/6
f 614/3/6 610/3/6 615/3/6
f 611/3/6 612/3/6 616/3/6
f 609/3/6 613/3/6 617/3/6
f 617/3/6 613/3/6 618/3/6
f 614/3/6 615/3/6 619/3/6
f 615/3/6 616/3/6 619/3/6
f 616/3/6 612/3/6 620/3/6
f 619/3/6 616/3/6 620/3/6
f 623/3/6 624/3/6 625/3/6
f 625/3/6 624/3/6 626/3/6
f 621/3/6 622/3/6 627/3/6
f 623/3/6 625/3/6 628/3/6
f 621/3/6 627/3/6 629/3/6
f 627/3/6 628/3/6 629/3/6
f 628/3/6 625/3/6 630/3/6
f 629/3/6 628/3/6 630/3/6
f 626/3/6 624/3/6 631/3/6
f 631/3/6 624/3/6 632/3/6
f 633/3/6 634/3/6 637/3/6
f 637/3/6 634/3/6 638/3/6
f 638/3/6 634/3/6 639/3/6
f 635/3/6 636/3/6 640/3/6
f 633/3/6 637/3/6 641/3/6
f 641/3/6 637/3/6 642/3/6
f 638/3/6 639/3/6 643/3/6
f 639/3/6 640/3/6 643/3/6
f 640/3/6 636/3/6 644/3/6
f 643/3/6 640/3/6 644/3/6
f 645/3/6 646/3/6 651/3/6
f 647/3/6 648/3/6 652/3/6
f 652/3/6 648/3/6 653/3/6
f 649/3/6 650/3/6 654/3/6
f 652/3/6 653/3/6 655/3/6
f 653/3/6 654/3/6 655/3/6
f 645/3/6 651/3/6 655/3/6
f 651/3/6 652/3/6 655/3/6
f 654/3/6 650/3/6 656/3/6
f 655/3/6 654/3/6 656/3/6
f 657/3/6 658/3/6 663/3/6
f 659/3/6 660/3/6 664/3/6
f 664/3/6 660/3/6 665/3/6
f 661/3/6 662/3/6 666/3/6
f 664/3/6 665/3/6 667/3/6
f 665/3/6 666/3/6 667/3/6
f 657/3/6 663/3/6 667/3/6
f 663/3/6 664/3/6 667/3/6
f 666/3/6 662/3/6 668/3/6
f 667/3/6 666/3/6 668/3/6
f 669/3/6 670/3/6 675/3/6
f 671/3/6 672/3/6 676/3/6
f 676/3/6 672/3/6 677/3/6
f 673/3/6 674/3/6 678/3/6
f 676/3/6 677/3/6 679/3/6
f 677/3/6 678/3/6 679/3/6
f 669/3/6 675/3/6 679/3/6
f 675/3/6 676/3/6 679/3/6
f 678/3/6 674/3/6 680/3/6
f 679/3/6 678/3/6 680/3/6
f 681/3/6 682/3/6 687/3/6
f 683/3/6 684/3/6 688/3/6
f 688/3/6 684/3/6 689/3/6
f 685/3/6 686/3/6 690/3/6
f 688/3/6 689/3/6 691/3/6
f 689/3/6 690/3/6 691/3/6
f 681/3/6 687/3/6 691/3/6
f 687/3/6 688/3/6 691/3/6
f 690/3/6 686/3/6 692/3/6
f 691/3/6 690/3/6 692/3/6
f 695/3/6 696/3/6 697/3/6
f 697/3/6 696/3/6 698/3/6
f 693/3/6 694/3/6 699/3/6
f 695/3/6 697/3/6 700/3/6
f 693/3/6 699/3/6 701/3/6
f 699/3/6 700/3/6 701/3/6
f 700/3/6 697/3/6 702/3/6
f 701/3/6 700/3/6 702/3/6
f 698/3/6 696/3/6 703/3/6
f 703/3/6 696/3/6 704/3/6
f 705/3/6 706/3/6 707/3/6
f 707/3/6 706/3/6 708/3/6
f 708/3/6 706/3/6 709/3/6
f 709/3/6 706/3/6 710/3/6
f 705/3/6 707/3/6 711/3/6
f 708/3/6 709/3/6 712/3/6
f 712/3/6 709/3/6 713/3/6
f 710/3/6 706/3/6 714/3/6
f 712/3/6 713/3/6 715/3/6
f 713/3/6 714/3/6 715/3/6
f 705/3/6 711/3/6 715/3/6
f 711/3/6 712/3/6 715/3/6
f 714/3/6 706/3/6 716/3/6
f 715/3/6 714/3/6 716/3/6
f 717/2/6 718/2/6 721/2/6
f 721/2/6 718/2/6 722/2/6
f 719/2/6 720/2/6 723/2/6
f 723/2/6 720/2/6 724/2/6
f 725/2/6 726/2/6 729/2/6
f 729/2/6 726/2/6 730/2/6
f 727/2/6 728/2/6 731/2/6
f 731/2/6 728/2/6 732/2/6
f 733/2/6 734/2/6 737/2/6
f 737/2/6 734/2/6 738/2/6
f 735/2/6 736/2/6 739/2/6
f 739/2/6 736/2/6 740/2/6
f 741/2/6 742/2/6 745/2/6
f 745/2/6 742/2/6 746/2/6
f 743/2/6 744/2/6 747/2/6
f 747/2/6 744/2/6 748/2/6
f 749/2/6 750/2/6 753/2/6
f 753/2/6 750/2/6 754/2/6
f 751/2/6 752/2/6 755/2/6
f 755/2/6 752/2/6 756/2/6
f 757/2/6 758/2/6 761/2/6
f 761/2/6 758/2/6 762/2/6
f 759/2/6 760/2/6 763/2/6
f 763/2/6 760/2/6 764/2/6
f 765/2/6 766/2/6 769/2/6
f 769/2/6 766/2/6 770/2/6
f 767/2/6 768/2/6 771/2/6
f 771/2/6 768/2/6 772/2/6
f 773/2/6 774/2/6 777/2/6
f 777/2/6 774/2/6 778/2/6
f 775/2/6 776/2/6 779/2/6
f 779/2/6 776/2/6 780/2/6
f 781/2/6 782/2/6 785/2/6
f 785/2/6 782/2/6 786/2/6
f 783/2/6 784/2/6 787/2/6
f 787/2/6 784/2/6 788/2/6
f 789/2/6 790/2/6 793/2/6
f 793/2/6 790/2/6 794/2/6
f 791/2/6 792/2/6 795/2/6
f 795/2/6 792/2/6 796/2/6
